<?xml version="1.0" encoding="UTF-8" standalone="no"?>
<!-- Created with Inkscape (http://www.inkscape.org/) -->

<svg
   xmlns:dc="http://purl.org/dc/elements/1.1/"
   xmlns:cc="http://creativecommons.org/ns#"
   xmlns:rdf="http://www.w3.org/1999/02/22-rdf-syntax-ns#"
   xmlns:svg="http://www.w3.org/2000/svg"
   xmlns="http://www.w3.org/2000/svg"
   xmlns:sodipodi="http://sodipodi.sourceforge.net/DTD/sodipodi-0.dtd"
   xmlns:inkscape="http://www.inkscape.org/namespaces/inkscape"
   width="256"
   height="256"
   id="svg2"
   version="1.1"
   inkscape:version="0.48.3.1 r9886"
   sodipodi:docname="drawing-1.svg">
  <defs
     id="defs4" />
  <sodipodi:namedview
     id="base"
     pagecolor="#000000"
     bordercolor="#666666"
     borderopacity="1.0"
     inkscape:pageopacity="0"
     inkscape:pageshadow="2"
     inkscape:zoom="0.98994949"
     inkscape:cx="175.26125"
     inkscape:cy="226.17986"
     inkscape:document-units="px"
     inkscape:current-layer="layer1"
     showgrid="false"
     inkscape:window-width="1366"
     inkscape:window-height="715"
     inkscape:window-x="0"
     inkscape:window-y="31"
     inkscape:window-maximized="1" />
  <metadata
     id="metadata7">
    <rdf:RDF>
      <cc:Work
         rdf:about="">
        <dc:format>image/svg+xml</dc:format>
        <dc:type
           rdf:resource="http://purl.org/dc/dcmitype/StillImage" />
        <dc:title />
      </cc:Work>
    </rdf:RDF>
  </metadata>
  <g
     inkscape:label="Layer 1"
     inkscape:groupmode="layer"
     id="layer1"
     transform="translate(0,-796.36218)">
    <path
       style="fill:#ffffff;fill-opacity:1"
       id="path2993"
       d="m 186.70682,1023.794 c -5.02703,1.967 -10.45059,2.423 -15.77938,2.8874 -3.53679,0.257 -7.07715,0.4652 -10.62026,0.6119 -1.89284,0.078 -4.17791,0.2265 -6.06913,-0.044 -1.17285,-0.1678 -2.31248,-0.517 -3.46873,-0.7756 -1.35428,-0.4309 -2.72478,-0.8139 -4.06285,-1.2929 -2.19081,-0.7841 -8.68148,-3.4565 -10.6071,-4.2215 -6.31471,-2.5084 -12.68095,-4.8819 -19.03911,-7.277 -10.20641,-3.8143 -20.324768,-7.8739 -29.802623,-13.2755 -8.134942,-5.08202 -16.010713,-10.57777 -23.618953,-16.41611 -7.563978,-5.64151 -14.145901,-12.35266 -19.751491,-19.91727 -4.154834,-6.02485 -7.15412,-12.71395 -9.951489,-19.44573 -2.542839,-6.59785 -4.624317,-13.38225 -6.53364,-20.18901 -1.745621,-6.48959 -3.430912,-12.99889 -4.537961,-19.63069 -0.801396,-4.92083 -0.964438,-9.899 -0.81211,-14.8721 0.276153,-4.98567 1.574899,-9.83926 3.812151,-14.29182 1.255314,-2.25023 3.16718,-4.17152 5.403563,-5.4754 34.284985,-19.98923 23.199728,-14.88855 37.708989,-21.45375 2.440679,-1.05647 4.802226,-2.28478 7.118715,-3.58855 0.879464,-0.49498 3.494568,-2.02074 2.620064,-1.51704 -31.039248,17.87786 -40.32003,23.57336 -27.548394,15.77968 1.601865,-1.01554 3.725041,-2.34613 5.311995,-3.41089 2.117916,-1.421 4.139727,-3.07192 6.345431,-4.35826 11.760512,-6.85855 23.567151,-13.63771 35.350728,-20.45657 3.443745,-2.01655 7.297425,-3.06342 11.212245,-3.66569 5.99225,-1.00431 12.06999,-1.34801 18.11536,-1.91264 5.06043,-0.46399 10.13038,-0.83001 15.21067,-0.96829 4.46883,-0.0989 8.93707,0.0538 13.40369,0.17502 7.18817,0.13084 14.38103,0.5972 21.51023,1.53566 5.0837,0.75436 10.27298,1.39925 15.13393,3.1236 4.78039,2.17271 8.61715,5.82401 12.39302,9.38152 3.82406,3.76797 7.30601,7.84867 10.26137,12.32911 2.53682,3.87418 4.12538,8.22394 5.4655,12.62588 1.23076,4.03371 2.25476,8.10809 3.01058,12.25626 0.83877,4.13159 1.30451,8.31218 1.62119,12.51076 0.20067,3.72917 0.15434,7.466 0.14009,11.19894 -0.0447,3.83685 0.0103,7.67329 0.006,11.5101 0.0183,4.1828 -0.0704,8.3642 -0.14495,12.546 -0.11171,5.35454 -0.17858,10.71258 0.0415,16.06507 0.26809,3.81953 0.0812,7.64575 -0.008,11.46794 -0.17621,4.78915 0.0684,9.58109 -0.02,14.3696 -0.10112,2.71881 -0.28962,5.43212 -0.55115,8.1399 -0.14603,1.98792 -0.15686,3.98315 -0.0804,5.9741 -0.0439,1.7648 -0.0408,3.5283 -0.0223,5.29371 0.14475,1.64261 -0.007,3.28418 -0.0731,4.92673 -0.0415,1.4081 -0.37562,2.77376 -0.56641,4.15999 -0.32374,0.59449 0.5882,1.4249 0.25838,2.01056 -0.0623,0.1106 -0.22946,-0.10888 -0.34702,-0.15675 -0.4933,-0.20086 -0.29542,-0.21143 -0.70735,0.0343 -0.20709,1.04271 -0.59529,2.0354 -0.90301,3.05022 -0.0464,0.12186 -0.0623,0.25012 -0.0862,0.37675 0,0 -36.74671,16.70766 -36.74671,16.70766 l 0,0 c 0.0829,-0.097 0.17361,-0.1861 0.22785,-0.3064 0.47625,-0.8164 0.8477,-1.6843 1.29477,-2.5155 -0.0142,-0.2102 -0.31969,-2.13 -0.12533,-2.2155 0.35423,-0.1559 0.98494,1.821 1.03418,0.6618 0.26768,-1.3937 0.58975,-2.7546 0.9848,-4.1198 0.31809,-1.4742 -0.0185,-2.9735 0.16428,-4.4748 0.0146,-1.7629 0.0109,-3.52379 -0.0313,-5.28585 0.0886,-2.0886 0.10942,-4.179 0.16027,-6.26883 0.0742,-2.81688 0.6412,-5.56613 1.0002,-8.35475 0.47458,-4.71927 0.23835,-9.48176 0.22164,-14.21762 -0.0908,-3.8198 -0.27317,-7.64276 -0.008,-11.46019 0.21174,-5.3669 0.16014,-10.73876 0.0414,-16.10751 -0.0748,-4.13462 -0.1637,-8.26885 -0.13941,-12.4045 0.002,-3.84341 0.0685,-7.68631 0.0348,-11.52985 -0.0102,-3.66662 -0.0233,-7.33347 -0.0985,-10.99946 -0.0924,-4.0506 -0.3659,-8.10902 -1.17668,-12.08704 -0.87152,-4.00283 -1.68849,-8.01684 -2.89625,-11.93806 -1.11825,-4.07109 -2.50323,-8.10743 -4.75564,-11.70643 -2.70943,-4.25095 -5.97776,-8.07775 -9.61985,-11.56626 -3.50447,-3.1362 -7.10512,-6.35207 -11.6865,-7.7789 -4.71148,-1.2321 -9.47978,-2.23326 -14.30881,-2.88432 -7.04628,-0.91123 -14.14353,-1.3716 -21.2518,-1.10515 -4.62026,0.11202 -9.24036,0.22014 -13.86157,0.28544 -4.83394,0.1167 -9.66859,0.2875 -14.482609,0.77072 -6.104441,0.59924 -12.256682,1.03286 -18.213548,2.59433 -3.722605,1.1065 -7.287501,2.61085 -10.60409,4.64801 65.374517,-37.94541 37.633137,-22.59985 27.387504,-15.75073 -1.700521,1.13678 -3.306765,2.41094 -5.011789,3.54096 -0.90658,0.60085 -1.851673,1.14145 -2.777509,1.71217 -15.543951,10.42479 -32.01623,19.48166 -48.779069,27.79267 -13.246562,7.29622 2.94689,-1.60356 29.57022,-17.16268 0.552732,-0.32302 -1.17806,0.50788 -1.735315,0.82304 -1.03271,0.58405 -2.031343,1.22795 -3.018081,1.8867 -0.473101,0.31585 -0.904433,0.69017 -1.35665,1.03526 -2.83711,3.72904 -4.557029,7.90059 -4.963014,12.60377 -0.242128,4.76701 0.01651,9.55478 0.371879,14.3113 0.74135,6.5666 2.072073,13.05545 3.790377,19.4351 1.893699,6.65313 4.283598,13.15819 6.639461,19.65954 2.53257,6.51582 5.144369,13.05436 9.135729,18.84532 5.153827,7.41113 11.318807,13.92789 18.664663,19.23217 7.639681,5.62591 15.478081,10.98028 23.629641,15.84297 9.13319,5.22714 18.63505,9.70134 28.46867,13.46673 11.29639,4.37903 22.69461,8.99693 34.66645,11.12733 6.49495,0.442 13.02173,0.1625 19.491,-0.5568 5.60762,-0.8307 11.21769,-1.9088 16.14249,-4.88489 0,0 -31.21769,24.97119 -31.21769,24.97119 z"
       inkscape:connector-curvature="0" />
  </g>
</svg>
